# xmcd
#
# Track frame offsets: 
#        150
#        15885
#        32563
#        47628
#        61499
#        76136
#        91431
#        105972
#        123642
#        136710
#        153420
#        172952
#        189528
#        204067
#        232320
#        245359
#        257275
#        270282
#        281530
#        298218
#
# Disc length: 4162 seconds
#
# Revision: 1
# Processed by: cddbd v1.5.2PL0 Copyright (c) Steve Scherf et al.
# Submitted via: ExactAudioCopy v1.1
#
DISCID=00104014
DTITLE=Ike and Tina Turner - Sweet Rhode Island Red and The Gospel Accordi
DTITLE=ng To Ike and Tina Turner
DYEAR=1974
DGENRE=Soul
TTITLE0=Let Me Be There
TTITLE1=Living For The City
TTITLE2=I Know
TTITLE3=Mississippi Rolling Stone
TTITLE4=Sugar Hill
TTITLE5=Sweet Rhode Island Red
TTITLE6=Ready For You Baby
TTITLE7=Smooth Out The Wrinkles
TTITLE8=Doozie
TTITLE9=Higher Ground
TTITLE10=Father Alone
TTITLE11=Walk With Me (I Need You Lord To Be My Friend)
TTITLE12=Glory, Glory
TTITLE13=Just A Closer Walk With Thee
TTITLE14=What A Friend We Have In Jesus
TTITLE15=Amazing Grace
TTITLE16=Take My Hand, Precious Lord
TTITLE17=Nearer The Cross
TTITLE18=Our Lord Will Make A Way
TTITLE19=When The Saints Go Marching In
EXTD=
EXTT0=
EXTT1=
EXTT2=
EXTT3=
EXTT4=
EXTT5=
EXTT6=
EXTT7=
EXTT8=
EXTT9=
EXTT10=
EXTT11=
EXTT12=
EXTT13=
EXTT14=
EXTT15=
EXTT16=
EXTT17=
EXTT18=
EXTT19=
PLAYORDER=
